<?xml version="1.0" encoding="UTF-8"?><svg id="Layer_1" xmlns="http://www.w3.org/2000/svg" xmlns:xlink="http://www.w3.org/1999/xlink" viewBox="0 0 1012.33 274.57"><defs><style>.cls-1{fill:url(#linear-gradient);}.cls-2{fill:#0f2d70;}.cls-3{fill:#5b89e0;}</style><linearGradient id="linear-gradient" x1="253.79" y1="-8.97" x2="30.18" y2="281.03" gradientUnits="userSpaceOnUse"><stop offset="0" stop-color="#5fa5ee"/><stop offset=".74" stop-color="#285bdb"/></linearGradient></defs><g><g><path class="cls-2" d="M309.93,31.5h49.97c27.6,0,38.82,14.43,38.82,30.28,0,13.6-7.42,22.43-15.86,25.92,8.14,2.9,19.44,11.35,19.44,27.67,0,21.14-16.43,35.46-40.87,35.46h-51.51V31.5Zm46.98,47.95c13.99,0,19.62-5.95,19.62-15.45s-6.95-14.92-18.3-14.92h-26.34v30.37h25.01Zm-25.01,53.81h25.41c14.3,0,22.03-6.25,22.03-18.45,0-10.76-6.93-17.78-23.16-17.78h-24.27v36.23Z"/><path class="cls-2" d="M492.71,129.13c0,8.32,.69,19.44,1.21,21.72h-20.5c-.69-1.83-1.21-6.35-1.31-9.66-3.18,5.3-9.56,11.73-25.76,11.73-21.23,0-30.22-13.91-30.22-27.58,0-20.07,16-29.3,42.13-29.3h13.49v-6.14c0-6.81-2.35-14.14-15.49-14.14-11.86,0-14.21,5.4-15.5,11.99h-20.48c1.28-14.57,10.29-27.79,36.77-27.67,23.06,.12,35.68,9.25,35.68,30.05v39.01Zm-20.92-19.63h-11.47c-15.77,0-22.59,4.64-22.59,14.52,0,7.36,4.74,13.21,14.28,13.21,17.54,0,19.78-12.04,19.78-25.23v-2.5Z"/><path class="cls-2" d="M516.52,84.49c0-7.59,0-15.69-.17-22.35h20.8c.47,2.4,.76,9.62,.83,12.4,3.19-6.26,10.39-14.47,26.47-14.47,17.41,0,29.48,11.41,29.48,34.14v56.64h-21.45v-54.17c0-11.12-3.97-18.96-15.71-18.96-12.55,0-18.78,8.13-18.78,24.52v48.6h-21.45V84.49Z"/><path class="cls-2" d="M691.68,122.69c-3.29,14.94-13.67,30.22-38.8,30.22-26.53,0-41.04-18.59-41.04-45.83,0-25.82,15.38-47.01,42.2-47.01,28.45,0,36.94,20.37,37.64,30.88h-21.02c-1.74-7.83-6.36-13.81-17.04-13.81-12.73,0-19.94,11.05-19.94,29.24,0,19.33,7.37,29.6,19.68,29.6,9.33,0,14.5-5.3,17.18-13.28h21.14Z"/><path class="cls-2" d="M733.11,120.45l-10.52,30.39h-22.07l41.2-119.34h27.98l42.98,119.34h-23.61l-10.99-30.39h-44.98Zm39.94-18.55c-9.47-27.3-15.16-43.59-17.94-53.76h-.17c-2.93,11.2-9.25,30.42-16.85,53.76h34.96Z"/><path class="cls-2" d="M848.65,141.94v43.17h-21.33V83.61c0-7.2,0-14.43-.17-21.47h20.79c.35,2.55,.71,7.97,.71,12.02,4.14-7.33,12.42-14.09,26.86-14.09,20.12,0,35.36,16.84,35.36,44.18,0,31.42-17.17,48.66-38.66,48.66-13.13,0-19.98-5.16-23.57-10.97Zm40.37-36.87c0-17.12-7.24-27.53-20.09-27.53-15.44,0-21.16,9.85-21.16,28.96s5.04,29.1,20.07,29.1c14.08,0,21.18-11.19,21.18-30.53Z"/><path class="cls-2" d="M950.11,141.94v43.17h-21.33V83.61c0-7.2,0-14.43-.17-21.47h20.79c.35,2.55,.71,7.97,.71,12.02,4.14-7.33,12.42-14.09,26.86-14.09,20.12,0,35.36,16.84,35.36,44.18,0,31.42-17.17,48.66-38.66,48.66-13.13,0-19.98-5.16-23.57-10.97Zm40.37-36.87c0-17.12-7.24-27.53-20.09-27.53-15.44,0-21.16,9.85-21.16,28.96s5.04,29.1,20.07,29.1c14.08,0,21.18-11.19,21.18-30.53Z"/></g><g><path class="cls-3" d="M350,237.53h-34.41l-7.41,16.5h-6.79l28.23-61.76h6.44l28.23,61.76h-6.88l-7.41-16.5Zm-2.38-5.29l-14.82-33.17-14.82,33.17h29.64Z"/><path class="cls-3" d="M414.14,207.62v46.41h-6v-8.47c-1.65,2.82-3.91,5.02-6.79,6.57-2.88,1.56-6.18,2.34-9.88,2.34-6.06,0-10.84-1.69-14.34-5.07-3.5-3.38-5.25-8.34-5.25-14.87v-26.91h6.26v26.29c0,4.88,1.2,8.59,3.62,11.12,2.41,2.53,5.85,3.79,10.32,3.79,4.88,0,8.73-1.49,11.56-4.46,2.82-2.97,4.23-7.1,4.23-12.4v-24.35h6.26Z"/><path class="cls-3" d="M456.14,251.2c-1.18,1.06-2.63,1.87-4.37,2.43-1.74,.56-3.54,.84-5.43,.84-4.35,0-7.71-1.18-10.06-3.53-2.35-2.35-3.53-5.67-3.53-9.97v-28.06h-8.29v-5.29h8.29v-10.14h6.27v10.14h14.12v5.29h-14.12v27.7c0,2.76,.69,4.87,2.07,6.31,1.38,1.44,3.37,2.16,5.96,2.16,1.29,0,2.54-.2,3.75-.62,1.2-.41,2.25-1,3.13-1.76l2.21,4.5Z"/><path class="cls-3" d="M472.72,251.42c-3.59-2.03-6.41-4.84-8.47-8.43-2.06-3.59-3.09-7.64-3.09-12.17s1.03-8.59,3.09-12.18c2.06-3.59,4.88-6.38,8.47-8.38,3.59-2,7.62-3,12.09-3s8.5,1,12.09,3c3.59,2,6.4,4.79,8.43,8.38,2.03,3.59,3.04,7.65,3.04,12.18s-1.02,8.59-3.04,12.17c-2.03,3.59-4.84,6.4-8.43,8.43-3.59,2.03-7.62,3.04-12.09,3.04s-8.5-1.02-12.09-3.04Zm20.95-4.76c2.61-1.5,4.66-3.63,6.13-6.4,1.47-2.76,2.21-5.91,2.21-9.44s-.74-6.68-2.21-9.44c-1.47-2.76-3.52-4.9-6.13-6.4-2.62-1.5-5.57-2.25-8.87-2.25s-6.25,.75-8.87,2.25c-2.62,1.5-4.68,3.63-6.18,6.4-1.5,2.77-2.25,5.91-2.25,9.44s.75,6.68,2.25,9.44c1.5,2.77,3.56,4.9,6.18,6.4,2.62,1.5,5.57,2.25,8.87,2.25s6.25-.75,8.87-2.25Z"/><path class="cls-3" d="M592.75,212.3c3.32,3.35,4.99,8.29,4.99,14.82v26.91h-6.27v-26.29c0-4.82-1.16-8.5-3.48-11.03-2.32-2.53-5.6-3.79-9.84-3.79-4.82,0-8.62,1.49-11.38,4.46-2.76,2.97-4.15,7.07-4.15,12.31v24.35h-6.26v-26.29c0-4.82-1.16-8.5-3.48-11.03-2.32-2.53-5.63-3.79-9.93-3.79-4.76,0-8.55,1.49-11.34,4.46-2.79,2.97-4.19,7.07-4.19,12.31v24.35h-6.27v-46.41h6v8.47c1.65-2.82,3.94-5,6.88-6.53,2.94-1.53,6.32-2.29,10.15-2.29s7.25,.82,10.1,2.47c2.85,1.65,4.99,4.09,6.4,7.32,1.71-3.06,4.16-5.46,7.37-7.19,3.21-1.73,6.87-2.6,10.98-2.6,5.82,0,10.4,1.68,13.72,5.03Z"/><path class="cls-3" d="M644.94,211.81c3.23,3.03,4.85,7.51,4.85,13.45v28.76h-6v-7.23c-1.41,2.41-3.48,4.29-6.22,5.65-2.73,1.35-5.98,2.03-9.75,2.03-5.18,0-9.3-1.24-12.35-3.71-3.06-2.47-4.59-5.74-4.59-9.79s1.43-7.12,4.28-9.53c2.85-2.41,7.4-3.62,13.63-3.62h14.73v-2.82c0-4-1.12-7.04-3.35-9.13-2.24-2.09-5.5-3.13-9.79-3.13-2.94,0-5.77,.49-8.47,1.46-2.71,.97-5.03,2.31-6.97,4.01l-2.82-4.68c2.35-2,5.18-3.54,8.47-4.63,3.29-1.09,6.76-1.63,10.41-1.63,6.06,0,10.7,1.51,13.94,4.54Zm-7.06,35.29c2.53-1.62,4.41-3.96,5.65-7.01v-7.59h-14.56c-7.94,0-11.91,2.77-11.91,8.29,0,2.71,1.03,4.84,3.09,6.4,2.06,1.56,4.94,2.34,8.65,2.34s6.56-.81,9.09-2.43Z"/><path class="cls-3" d="M691.26,251.2c-1.18,1.06-2.63,1.87-4.37,2.43-1.74,.56-3.54,.84-5.43,.84-4.35,0-7.71-1.18-10.06-3.53-2.35-2.35-3.53-5.67-3.53-9.97v-28.06h-8.29v-5.29h8.29v-10.14h6.26v10.14h14.12v5.29h-14.12v27.7c0,2.76,.69,4.87,2.07,6.31,1.38,1.44,3.36,2.16,5.96,2.16,1.29,0,2.54-.2,3.75-.62,1.2-.41,2.25-1,3.13-1.76l2.21,4.5Z"/><path class="cls-3" d="M702.55,196.15c-.88-.88-1.32-1.94-1.32-3.18s.44-2.21,1.32-3.09c.88-.88,1.97-1.32,3.26-1.32s2.38,.43,3.27,1.28c.88,.85,1.32,1.87,1.32,3.04,0,1.29-.44,2.38-1.32,3.26s-1.97,1.32-3.27,1.32-2.38-.44-3.26-1.32Zm.09,11.47h6.27v46.41h-6.27v-46.41Z"/><path class="cls-3" d="M733.25,251.42c-3.59-2.03-6.41-4.84-8.47-8.43-2.06-3.59-3.09-7.64-3.09-12.17s1.03-8.59,3.09-12.18c2.06-3.59,4.88-6.38,8.47-8.38,3.59-2,7.62-3,12.09-3s8.5,1,12.09,3c3.59,2,6.4,4.79,8.43,8.38,2.03,3.59,3.04,7.65,3.04,12.18s-1.01,8.59-3.04,12.17c-2.03,3.59-4.84,6.4-8.43,8.43-3.59,2.03-7.62,3.04-12.09,3.04s-8.5-1.02-12.09-3.04Zm20.95-4.76c2.62-1.5,4.66-3.63,6.13-6.4,1.47-2.76,2.21-5.91,2.21-9.44s-.74-6.68-2.21-9.44c-1.47-2.76-3.52-4.9-6.13-6.4-2.62-1.5-5.57-2.25-8.87-2.25s-6.25,.75-8.87,2.25c-2.62,1.5-4.68,3.63-6.18,6.4-1.5,2.77-2.25,5.91-2.25,9.44s.75,6.68,2.25,9.44c1.5,2.77,3.56,4.9,6.18,6.4,2.62,1.5,5.57,2.25,8.87,2.25s6.25-.75,8.87-2.25Z"/><path class="cls-3" d="M819.23,212.34c3.44,3.38,5.16,8.31,5.16,14.78v26.91h-6.27v-26.29c0-4.82-1.21-8.5-3.62-11.03-2.41-2.53-5.85-3.79-10.32-3.79-5,0-8.96,1.49-11.87,4.46-2.91,2.97-4.37,7.07-4.37,12.31v24.35h-6.27v-46.41h6v8.56c1.71-2.82,4.07-5.01,7.1-6.57,3.03-1.56,6.54-2.34,10.54-2.34,5.82,0,10.46,1.69,13.9,5.07Z"/></g></g><path class="cls-1" d="M282.04,63.89h-121.84L121.34,0,0,210.68H121.84l38.86,63.89L282.04,63.89Zm-127.73,11.93h43.58l-70.16,122.92h-43.58l70.16-122.92Z"/></svg>